<mxfile host="app.diagrams.net" agent="Mozilla/5.0 (Windows NT 10.0; Win64; x64) AppleWebKit/537.36 (KHTML, like Gecko) Chrome/131.0.0.0 Safari/537.36" version="24.8.6">
  <diagram name="1 oldal" id="45gOy-QddcK-h88EuHRZ">
    <mxGraphModel dx="1434" dy="738" grid="1" gridSize="10" guides="1" tooltips="1" connect="1" arrows="1" fold="1" page="1" pageScale="1" pageWidth="827" pageHeight="1169" math="0" shadow="0">
      <root>
        <mxCell id="0" />
        <mxCell id="1" parent="0" />
        <mxCell id="9L2iGw58JaosnKlMXx7j-1" value="Ã³ra" style="ellipse;whiteSpace=wrap;html=1;align=center;dashed=1;" parent="1" vertex="1">
          <mxGeometry x="350" y="110" width="100" height="40" as="geometry" />
        </mxCell>
        <mxCell id="9L2iGw58JaosnKlMXx7j-4" value="szak" style="ellipse;whiteSpace=wrap;html=1;align=center;" parent="1" vertex="1">
          <mxGeometry x="580" y="220" width="100" height="40" as="geometry" />
        </mxCell>
        <mxCell id="9L2iGw58JaosnKlMXx7j-5" value="idopont" style="ellipse;whiteSpace=wrap;html=1;align=center;" parent="1" vertex="1">
          <mxGeometry x="240" y="220" width="100" height="40" as="geometry" />
        </mxCell>
        <mxCell id="9L2iGw58JaosnKlMXx7j-6" value="oktato" style="ellipse;whiteSpace=wrap;html=1;align=center;" parent="1" vertex="1">
          <mxGeometry x="460" y="220" width="100" height="40" as="geometry" />
        </mxCell>
        <mxCell id="9L2iGw58JaosnKlMXx7j-7" value="helyszin" style="ellipse;whiteSpace=wrap;html=1;align=center;" parent="1" vertex="1">
          <mxGeometry x="350" y="220" width="100" height="40" as="geometry" />
        </mxCell>
        <mxCell id="9L2iGw58JaosnKlMXx7j-8" value="kurzusnev" style="ellipse;whiteSpace=wrap;html=1;align=center;" parent="1" vertex="1">
          <mxGeometry x="130" y="220" width="100" height="40" as="geometry" />
        </mxCell>
        <mxCell id="9L2iGw58JaosnKlMXx7j-10" value="" style="endArrow=none;html=1;rounded=0;exitX=0.5;exitY=0;exitDx=0;exitDy=0;entryX=-0.01;entryY=0.7;entryDx=0;entryDy=0;entryPerimeter=0;" parent="1" source="9L2iGw58JaosnKlMXx7j-8" target="9L2iGw58JaosnKlMXx7j-1" edge="1">
          <mxGeometry relative="1" as="geometry">
            <mxPoint x="200" y="140" as="sourcePoint" />
            <mxPoint x="360" y="140" as="targetPoint" />
          </mxGeometry>
        </mxCell>
        <mxCell id="9L2iGw58JaosnKlMXx7j-11" value="" style="endArrow=none;html=1;rounded=0;exitX=0.34;exitY=0.975;exitDx=0;exitDy=0;exitPerimeter=0;entryX=0.5;entryY=0;entryDx=0;entryDy=0;" parent="1" source="9L2iGw58JaosnKlMXx7j-1" target="9L2iGw58JaosnKlMXx7j-5" edge="1">
          <mxGeometry relative="1" as="geometry">
            <mxPoint x="300" y="190" as="sourcePoint" />
            <mxPoint x="460" y="190" as="targetPoint" />
          </mxGeometry>
        </mxCell>
        <mxCell id="9L2iGw58JaosnKlMXx7j-12" value="" style="endArrow=none;html=1;rounded=0;entryX=0.61;entryY=0.075;entryDx=0;entryDy=0;entryPerimeter=0;exitX=0.59;exitY=1;exitDx=0;exitDy=0;exitPerimeter=0;" parent="1" source="9L2iGw58JaosnKlMXx7j-1" target="9L2iGw58JaosnKlMXx7j-7" edge="1">
          <mxGeometry relative="1" as="geometry">
            <mxPoint x="430" y="160" as="sourcePoint" />
            <mxPoint x="574" y="190" as="targetPoint" />
          </mxGeometry>
        </mxCell>
        <mxCell id="9L2iGw58JaosnKlMXx7j-13" value="" style="endArrow=none;html=1;rounded=0;entryX=0.58;entryY=-0.075;entryDx=0;entryDy=0;entryPerimeter=0;exitX=1;exitY=1;exitDx=0;exitDy=0;" parent="1" source="9L2iGw58JaosnKlMXx7j-1" target="9L2iGw58JaosnKlMXx7j-6" edge="1">
          <mxGeometry relative="1" as="geometry">
            <mxPoint x="440" y="140" as="sourcePoint" />
            <mxPoint x="600" y="140" as="targetPoint" />
          </mxGeometry>
        </mxCell>
        <mxCell id="9L2iGw58JaosnKlMXx7j-14" value="" style="endArrow=none;html=1;rounded=0;exitX=1.01;exitY=0.725;exitDx=0;exitDy=0;exitPerimeter=0;entryX=0.4;entryY=0;entryDx=0;entryDy=0;entryPerimeter=0;" parent="1" source="9L2iGw58JaosnKlMXx7j-1" target="9L2iGw58JaosnKlMXx7j-4" edge="1">
          <mxGeometry relative="1" as="geometry">
            <mxPoint x="510" y="160" as="sourcePoint" />
            <mxPoint x="670" y="160" as="targetPoint" />
          </mxGeometry>
        </mxCell>
        <mxCell id="9L2iGw58JaosnKlMXx7j-15" value="ig" style="ellipse;whiteSpace=wrap;html=1;align=center;" parent="1" vertex="1">
          <mxGeometry x="364" y="320" width="100" height="40" as="geometry" />
        </mxCell>
        <mxCell id="9L2iGw58JaosnKlMXx7j-16" value="tol" style="ellipse;whiteSpace=wrap;html=1;align=center;" parent="1" vertex="1">
          <mxGeometry x="240" y="320" width="100" height="40" as="geometry" />
        </mxCell>
        <mxCell id="9L2iGw58JaosnKlMXx7j-17" value="nap" style="ellipse;whiteSpace=wrap;html=1;align=center;" parent="1" vertex="1">
          <mxGeometry x="110" y="320" width="100" height="40" as="geometry" />
        </mxCell>
        <mxCell id="9L2iGw58JaosnKlMXx7j-18" value="" style="endArrow=none;html=1;rounded=0;exitX=0.26;exitY=0;exitDx=0;exitDy=0;exitPerimeter=0;entryX=1;entryY=1;entryDx=0;entryDy=0;" parent="1" edge="1" target="9L2iGw58JaosnKlMXx7j-5" source="9L2iGw58JaosnKlMXx7j-15">
          <mxGeometry relative="1" as="geometry">
            <mxPoint x="320" y="270" as="sourcePoint" />
            <mxPoint x="480" y="270" as="targetPoint" />
          </mxGeometry>
        </mxCell>
        <mxCell id="9L2iGw58JaosnKlMXx7j-19" value="" style="endArrow=none;html=1;rounded=0;exitX=0.4;exitY=-0.05;exitDx=0;exitDy=0;exitPerimeter=0;entryX=0.5;entryY=1;entryDx=0;entryDy=0;" parent="1" source="9L2iGw58JaosnKlMXx7j-16" target="9L2iGw58JaosnKlMXx7j-5" edge="1">
          <mxGeometry relative="1" as="geometry">
            <mxPoint x="280" y="290" as="sourcePoint" />
            <mxPoint x="440" y="290" as="targetPoint" />
          </mxGeometry>
        </mxCell>
        <mxCell id="9L2iGw58JaosnKlMXx7j-20" value="" style="endArrow=none;html=1;rounded=0;exitX=0.5;exitY=0;exitDx=0;exitDy=0;entryX=0;entryY=1;entryDx=0;entryDy=0;" parent="1" source="9L2iGw58JaosnKlMXx7j-17" target="9L2iGw58JaosnKlMXx7j-5" edge="1">
          <mxGeometry relative="1" as="geometry">
            <mxPoint x="160" y="300" as="sourcePoint" />
            <mxPoint x="320" y="300" as="targetPoint" />
          </mxGeometry>
        </mxCell>
      </root>
    </mxGraphModel>
  </diagram>
</mxfile>
